<svg xmlns="http://www.w3.org/2000/svg" xmlns:xlink="http://www.w3.org/1999/xlink"><symbol fill="none" viewBox="0 0 24 24" id="credit-card" xmlns="http://www.w3.org/2000/svg"><path d="M21 4H3a2 2 0 0 0-2 2v12a2 2 0 0 0 2 2h18a2 2 0 0 0 2-2V6a2 2 0 0 0-2-2ZM1 10h22" stroke="#fff" stroke-width="1.5" stroke-linecap="round" stroke-linejoin="round"/></symbol><symbol fill="none" viewBox="0 0 32 32" id="play" xmlns="http://www.w3.org/2000/svg"><path d="m6.672 4 18.667 12L6.672 28V4Z" fill="#105720" stroke="#105720" stroke-width="2" stroke-linecap="round" stroke-linejoin="round"/></symbol><symbol fill="none" viewBox="0 0 200 200" id="play-text-cerl" xmlns="http://www.w3.org/2000/svg"><path d="m193.338 101.699-.199 3.228c-.088 1.424-.368 2.482-.838 3.173-.471.691-1.218 1.005-2.242.942a2.716 2.716 0 0 1-1.177-.331 2.235 2.235 0 0 1-.821-.787c-.208-.336-.342-.744-.402-1.222l-.077-.005a4.13 4.13 0 0 1-.511 1.299 2.291 2.291 0 0 1-.929.85c-.388.196-.871.275-1.448.24-.701-.044-1.284-.244-1.747-.602-.464-.352-.802-.832-1.015-1.44-.208-.608-.286-1.317-.236-2.128l.242-3.922 11.4.705Zm-4.971 1.023-.135 2.183c-.061.993.06 1.69.364 2.089.304.405.77.627 1.399.666.65.04 1.132-.159 1.446-.599.314-.435.502-1.149.563-2.141l.122-1.965-3.759-.233Zm-1.115-.069-4.265-.264-.147 2.371c-.062 1.013.091 1.743.46 2.189.374.445.899.689 1.575.731.432.027.807-.047 1.125-.22.318-.168.571-.46.759-.877.192-.411.31-.969.354-1.676l.139-2.254ZM189.322 114.332l-5.284-1.029a14.07 14.07 0 0 1-.397-.085 23.72 23.72 0 0 1-.509-.123l-.516-.133a7.134 7.134 0 0 1-.402-.102l6.232 5.974-.304 1.564-8.405-1.637.231-1.189 5.153 1.004a38.028 38.028 0 0 1 1.375.3l.578.136-6.227-5.957.306-1.572 8.405 1.638-.236 1.211ZM185.223 130.36l-7.096-2.305-.378 1.167-3.864-1.255.388-1.196 2.816.914 1.871-5.766-2.817-.915.384-1.182 3.863 1.255-.207.639a10.32 10.32 0 0 0 1.742 1.847 13.577 13.577 0 0 0 2.188 1.483 15.59 15.59 0 0 0 2.482 1.085l-1.372 4.229Zm-.592-1.515.626-1.932c-.708-.28-1.41-.625-2.103-1.037a14.06 14.06 0 0 1-1.928-1.349 8.94 8.94 0 0 1-1.46-1.525l-1.251 3.857 6.116 1.986ZM182.447 137.533c-.301.664-.707 1.166-1.216 1.507a3.137 3.137 0 0 1-1.731.526c-.641.012-1.314-.142-2.021-.463l-.732-.333 2.444-5.386c-.922-.401-1.722-.49-2.401-.267-.68.224-1.201.736-1.565 1.538-.224.493-.376.95-.459 1.37-.082.42-.128.874-.137 1.362l-1.039-.472c.004-.473.053-.923.149-1.348a7.39 7.39 0 0 1 .499-1.421c.34-.749.789-1.335 1.346-1.757a3.493 3.493 0 0 1 1.939-.681c.733-.039 1.528.137 2.386.527.84.381 1.502.851 1.986 1.409.488.564.781 1.178.881 1.841.097.668-.013 1.351-.329 2.048Zm-.961-.454c.286-.631.308-1.227.066-1.789-.243-.563-.718-1.047-1.425-1.455l-1.873 4.127c.467.206.908.318 1.324.335.418.024.789-.062 1.112-.258.329-.194.594-.514.796-.96ZM172.045 147.403c-.603-.362-1.094-.764-1.473-1.204a3.86 3.86 0 0 1-.793-1.397 3.438 3.438 0 0 1-.106-1.523c.079-.517.277-1.039.594-1.566a4.1 4.1 0 0 1 1.066-1.2c.419-.302.88-.504 1.386-.608a4.054 4.054 0 0 1 1.612.031c.57.124 1.156.367 1.759.729.803.483 1.405 1.03 1.804 1.64.403.613.601 1.261.592 1.942-.006.689-.22 1.384-.641 2.085-.402.67-.903 1.165-1.502 1.485-.602.325-1.27.456-2.003.392-.731-.057-1.496-.325-2.295-.806Zm3.353-5.586c-.589-.354-1.147-.583-1.674-.687-.527-.104-1.006-.064-1.438.119-.433.184-.803.533-1.111 1.046-.306.509-.438.998-.397 1.466.038.473.227.917.566 1.334.339.417.803.802 1.392 1.156.585.352 1.137.577 1.654.675.523.102.998.059 1.426-.127.427-.187.797-.539 1.108-1.057.458-.764.542-1.476.252-2.136-.292-.656-.885-1.252-1.778-1.789ZM163.284 158.591c-.535-.456-.954-.932-1.256-1.429a3.87 3.87 0 0 1-.553-1.508 3.456 3.456 0 0 1 .144-1.519c.164-.498.444-.98.843-1.448a4.08 4.08 0 0 1 1.249-1.01c.461-.229.95-.353 1.466-.372a4.043 4.043 0 0 1 1.585.294c.542.215 1.081.551 1.616 1.007.713.608 1.217 1.246 1.51 1.914.298.671.387 1.342.267 2.013-.119.678-.444 1.329-.974 1.952-.506.595-1.081 1.001-1.725 1.219-.647.222-1.327.241-2.039.058-.713-.176-1.423-.566-2.133-1.171Zm4.223-4.961c-.523-.446-1.036-.764-1.539-.953-.503-.188-.982-.228-1.439-.117-.456.11-.879.394-1.267.85-.385.452-.595.912-.632 1.381-.039.472.074.942.34 1.409.267.466.662.922 1.185 1.368.519.443 1.026.755 1.521.937.499.186.974.221 1.427.108.452-.114.874-.401 1.266-.861.577-.679.777-1.367.599-2.066-.181-.695-.668-1.381-1.461-2.056ZM157.432 169.884l-1.084.931.114-5.544-5.913-.763 1.156-.992 5.779.763-2.827-3.298.99-.849 5.573 6.5-.99.85-2.705-3.155-.093 5.557ZM145.318 173.407c-.395-.582-.672-1.153-.83-1.712a3.862 3.862 0 0 1-.132-1.601c.071-.508.252-.983.543-1.426.29-.436.689-.827 1.198-1.172a4.077 4.077 0 0 1 1.472-.64 3.553 3.553 0 0 1 1.512.031c.498.121.981.357 1.451.705.465.352.894.819 1.289 1.401.526.776.841 1.525.947 2.247.108.726.015 1.396-.279 2.011-.296.622-.782 1.163-1.458 1.622-.647.439-1.309.678-1.988.717-.682.041-1.343-.121-1.981-.487-.64-.359-1.221-.925-1.744-1.696Zm5.391-3.659c-.386-.569-.796-1.012-1.23-1.328-.434-.315-.886-.481-1.356-.496-.469-.015-.952.146-1.447.482-.492.334-.817.721-.977 1.163-.164.445-.18.928-.047 1.449.133.52.392 1.065.778 1.634.382.565.788 1.001 1.216 1.308.432.312.881.473 1.347.483.467.011.95-.153 1.45-.493.737-.5 1.113-1.11 1.127-1.832.01-.718-.277-1.508-.861-2.37ZM136.843 182.743l-3.854-7.647 1.047-.527 2.51 4.981c.103.204.203.414.299.628.094.221.186.443.275.666l.042-.021-.609-7.525.984-.496 5.623 4.994.042-.021a16.782 16.782 0 0 1-.352-.628 15.538 15.538 0 0 1-.348-.656l-2.489-4.939 1.053-.531 3.854 7.646-1.556.785-5.619-5.005.646 7.514-1.548.782ZM126.637 186.539l-2.825-8.083 1.232-.431 2.456 7.029 4.306-1.507-2.456-7.029 1.232-.431 2.824 8.083-6.769 2.369ZM120.231 188.333c-.995.23-1.785.177-2.37-.158-.585-.336-.991-.993-1.216-1.973l-1.307-5.672.921-.212.528 1.177.061-.014c.163-.358.347-.671.553-.938.207-.261.466-.484.776-.668.307-.177.701-.322 1.183-.433.508-.117.98-.132 1.417-.046.431.087.803.285 1.114.592.307.309.524.74.651 1.294.192.832.009 1.548-.548 2.146-.556.599-1.505 1.075-2.846 1.427l-1.424.393.117.51c.166.72.437 1.19.814 1.408.376.217.846.261 1.409.131.436-.1.838-.26 1.205-.478a8.902 8.902 0 0 0 1.023-.709l.609.87a7.123 7.123 0 0 1-1.18.793 5.83 5.83 0 0 1-1.49.56Zm-2.697-3.98 1.259-.346c1.031-.281 1.725-.62 2.082-1.018.357-.398.473-.871.347-1.419-.11-.477-.336-.796-.678-.958-.342-.162-.752-.187-1.229-.077-.741.171-1.3.516-1.677 1.036s-.471 1.191-.282 2.014l.178.768ZM112.621 189.632l-.387-3.573-4.746.515.387 3.573-1.289.139-.922-8.512 1.289-.14.416 3.845 4.746-.515-.416-3.845 1.297-.14.922 8.512-1.297.141ZM100.68 190.505l.125-5.382c.002-.104.008-.239.017-.406.009-.161.021-.335.035-.522l.044-.531c.009-.166.02-.304.033-.413l-4.839 7.147-1.593-.036.198-8.561 1.21.028-.12 5.249a32.956 32.956 0 0 1-.065 1.405l-.037.593 4.823-7.14 1.601.037-.198 8.56-1.234-.028ZM88.995 189.852l.826-5.319a22.349 22.349 0 0 1 .173-.914l.112-.52c.031-.164.06-.299.087-.406l-5.73 6.455-1.574-.245 1.313-8.461 1.196.186-.805 5.188a34.999 34.999 0 0 1-.246 1.385c-.05.25-.088.445-.114.583l5.712-6.45 1.583.246-1.313 8.461-1.22-.189ZM76.644 183.113l-3.513 2.219-.72-.793 2.983-1.931-1.281-3.315 1.05-.226 1.546 3.845-.065.201Zm-2.958-.961-3.549 2.207-.706-.787 2.976-1.934-1.274-3.313 1.036-.23 1.582 3.857-.065.2ZM63.63 184.887c.48.217.948.364 1.405.441.452.074.877.109 1.273.106l.036 1.244a6.443 6.443 0 0 1-1.569-.173 8.512 8.512 0 0 1-1.643-.558c-.83-.377-1.492-.832-1.988-1.366a4.367 4.367 0 0 1-1.042-1.769 5.033 5.033 0 0 1-.157-2.054 7.548 7.548 0 0 1 .644-2.213c.51-1.124 1.137-2.015 1.881-2.672.745-.657 1.591-1.042 2.54-1.154.944-.115 1.974.081 3.088.587.602.274 1.098.542 1.488.805.387.256.748.546 1.081.869l-.478 1.053c-.353-.292-.719-.576-1.098-.851a7.931 7.931 0 0 0-1.289-.732c-.635-.288-1.232-.454-1.79-.496a3.443 3.443 0 0 0-1.57.223c-.481.193-.92.497-1.314.913-.4.413-.75.935-1.053 1.564l5.142 2.336-.484 1.068-5.128-2.331a5.088 5.088 0 0 0-.327 1.628 3.67 3.67 0 0 0 .243 1.449c.176.446.441.844.797 1.195.349.353.786.649 1.313.888ZM53.32 167.452l1.373.84 1.46 7.685 3.02-4.948 1.133.693-5.95 9.749-1.134-.692 2.882-4.722-7.248 2.053-1.3-.794 7.203-2.099-1.439-7.765ZM40.937 164.878c.556-.683 1.15-1.234 1.78-1.654a5.228 5.228 0 0 1 1.949-.81 4.393 4.393 0 0 1 2.02.105c.682.193 1.356.561 2.022 1.104.687.56 1.198 1.157 1.533 1.793.33.633.501 1.29.512 1.97.006.677-.135 1.365-.422 2.065-.292.696-.715 1.386-1.271 2.068-.737.905-1.532 1.577-2.387 2.016-.854.439-1.739.602-2.653.488-.919-.117-1.836-.549-2.753-1.296-.876-.714-1.46-1.503-1.751-2.366-.296-.865-.32-1.765-.07-2.698.241-.931.738-1.86 1.491-2.785Zm7.049 5.746c.611-.751 1.034-1.489 1.267-2.213.233-.723.252-1.414.055-2.072-.2-.661-.642-1.269-1.325-1.825-.686-.56-1.369-.868-2.048-.924-.683-.06-1.354.099-2.01.477-.658.379-1.292.943-1.904 1.695-.93 1.143-1.417 2.231-1.46 3.265-.049 1.035.433 1.965 1.446 2.791.686.559 1.372.873 2.056.94.684.067 1.357-.083 2.019-.451.654-.367 1.289-.928 1.904-1.683ZM37.181 152.615l.897.979-7.555 6.928 2.501 2.731a274.265 274.265 0 0 1 3.08-2.156c.524-.361 1.023-.698 1.497-1.013.475-.315.903-.588 1.285-.818.625-.39 1.195-.682 1.708-.877.506-.196.971-.262 1.396-.199.417.062.81.293 1.175.693a2.947 2.947 0 0 1 .548.876l-.824.755a2.538 2.538 0 0 0-.17-.384 1.997 1.997 0 0 0-.282-.388.9.9 0 0 0-.81-.307 3.066 3.066 0 0 0-1.05.347c-.376.19-.75.399-1.121.626-.307.189-.69.435-1.15.735-.458.301-.974.647-1.548 1.039-.577.395-1.191.82-1.841 1.275-.654.451-1.323.919-2.007 1.406l-4.147-4.529 8.418-7.719ZM24.661 144.932c.73-.492 1.458-.847 2.184-1.065a5.236 5.236 0 0 1 2.1-.209 4.385 4.385 0 0 1 1.903.687c.596.384 1.135.932 1.614 1.645.494.735.81 1.455.945 2.161a4.339 4.339 0 0 1-.082 2.033 5.277 5.277 0 0 1-1.004 1.854c-.482.581-1.087 1.118-1.817 1.609-.968.652-1.925 1.064-2.87 1.236-.945.171-1.839.07-2.68-.305-.846-.379-1.598-1.059-2.258-2.04-.63-.938-.96-1.862-.989-2.773-.03-.914.208-1.781.717-2.601.502-.822 1.248-1.566 2.237-2.232Zm5.075 7.546c.804-.541 1.422-1.124 1.856-1.748.433-.625.651-1.281.654-1.967 0-.691-.245-1.401-.737-2.132-.494-.734-1.058-1.228-1.691-1.479-.637-.256-1.324-.298-2.063-.127-.738.17-1.51.526-2.313 1.067-1.223.824-2.005 1.724-2.346 2.701-.348.975-.157 2.005.572 3.09.494.735 1.059 1.234 1.694 1.497.635.263 1.323.315 2.063.155.733-.16 1.503-.513 2.311-1.057ZM26.03 135.099l-7.59 7.703.026.057c.185-.108.415-.233.687-.375a40.077 40.077 0 0 1 1.895-.93l6.56-3.011.515 1.123-10.381 4.763-.82-1.789 7.127-7.251-.023-.05-10.164.624-.814-1.775 10.381-4.764.547 1.193-6.646 3.05c-.308.141-.617.278-.93.41a53.26 53.26 0 0 1-1.64.658l.026.057 10.792-.68.452.987ZM16.71 121.698l3.827 1.666-.256 1.023-3.29-1.346-1.994 2.931-.768-.716 2.28-3.497.201-.061Zm.9 3.001 3.819 1.644-.254 1.031-3.29-1.346-1.993 2.93-.771-.723 2.286-3.475.202-.061ZM6.657 98.68l.187-3.228c.083-1.425.358-2.484.826-3.177.468-.693 1.214-1.01 2.239-.95.441.026.834.135 1.178.327.339.186.613.447.823.783.21.336.346.743.407 1.22l.078.005c.107-.494.275-.928.506-1.3.23-.373.539-.658.926-.855.387-.196.869-.278 1.446-.245.702.041 1.285.24 1.75.595.465.35.805.83 1.02 1.436.21.607.291 1.316.244 2.127l-.227 3.923-11.403-.66Zm4.967-1.042.127-2.184c.058-.993-.066-1.689-.372-2.087-.305-.404-.773-.624-1.402-.66-.65-.038-1.131.163-1.443.604-.313.436-.497 1.15-.555 2.144l-.114 1.965 3.76.218Zm1.116.065 4.266.247.137-2.371c.06-1.014-.097-1.743-.468-2.187-.376-.444-.902-.686-1.578-.725-.431-.025-.806.05-1.124.224-.317.17-.57.463-.755.88-.19.411-.307.97-.348 1.678l-.13 2.254ZM10.563 86.416l5.291.99c.102.018.235.046.398.081.158.035.328.075.51.12l.517.128c.163.036.297.069.402.1l-6.277-5.927.293-1.567 8.416 1.574-.222 1.19-5.16-.965a32.995 32.995 0 0 1-1.377-.289l-.58-.132 6.273 5.91-.294 1.574-8.417-1.573.227-1.214ZM14.614 70.118l7.104 2.277.374-1.168 3.869 1.24-.384 1.198-2.82-.904-1.848 5.774 2.82.904-.379 1.183-3.869-1.24.205-.64a10.33 10.33 0 0 0-1.748-1.84 13.591 13.591 0 0 0-2.194-1.475c-.797-.43-1.626-.79-2.486-1.076l1.356-4.233Zm.598 1.512-.62 1.935c.71.276 1.413.62 2.108 1.028.696.404 1.34.851 1.933 1.342a8.942 8.942 0 0 1 1.466 1.52l1.236-3.862-6.123-1.963ZM17.325 62.983c.299-.665.702-1.169 1.21-1.511a3.133 3.133 0 0 1 1.73-.533c.64-.014 1.314.138 2.022.456l.733.33-2.423 5.395c.923.398 1.723.484 2.402.258.678-.226 1.198-.74 1.558-1.543.222-.495.373-.952.454-1.373.08-.42.125-.875.133-1.362l1.04.468c-.002.473-.05.923-.144 1.349a7.39 7.39 0 0 1-.493 1.422c-.338.751-.784 1.338-1.34 1.762a3.494 3.494 0 0 1-1.937.688c-.732.042-1.528-.13-2.388-.517-.84-.379-1.504-.846-1.991-1.402-.49-.563-.785-1.175-.887-1.838-.1-.667.007-1.35.32-2.049Zm.962.45c-.284.632-.303 1.229-.059 1.79.245.561.722 1.044 1.43 1.449l1.858-4.133c-.468-.205-.91-.315-1.325-.33a1.885 1.885 0 0 0-1.111.262c-.328.195-.592.516-.793.963ZM27.76 52.904c.604.36 1.097.76 1.477 1.2.382.439.647.903.798 1.393.15.49.188.998.112 1.522-.077.518-.274 1.04-.588 1.569a4.091 4.091 0 0 1-1.062 1.204 3.559 3.559 0 0 1-1.383.612c-.503.101-1.04.093-1.613-.024-.57-.122-1.157-.363-1.761-.723-.805-.48-1.409-1.024-1.81-1.633-.406-.612-.605-1.258-.6-1.94.004-.69.215-1.385.634-2.088.4-.67.898-1.168 1.496-1.49.601-.327 1.268-.46 2.002-.399.731.054 1.497.32 2.298.797Zm-3.333 5.599c.59.352 1.15.579 1.677.68.527.103 1.006.061 1.438-.124.432-.185.8-.535 1.107-1.05.304-.51.434-1 .392-1.467-.04-.473-.23-.917-.571-1.332-.341-.416-.807-.8-1.397-1.151-.586-.35-1.139-.573-1.657-.67-.523-.099-.997-.054-1.425.134-.427.188-.795.541-1.104 1.06-.455.766-.537 1.478-.245 2.137.296.655.89 1.25 1.785 1.783ZM36.134 42.056c.539.453.96.926 1.266 1.42.306.495.494.997.564 1.505.07.508.026 1.014-.133 1.52-.16.498-.437.983-.832 1.454a4.093 4.093 0 0 1-1.241 1.018c-.46.233-.948.36-1.463.383a4.037 4.037 0 0 1-1.588-.282c-.544-.212-1.085-.543-1.623-.995-.718-.603-1.226-1.237-1.524-1.903-.303-.669-.397-1.34-.282-2.011.114-.68.434-1.332.96-1.959.502-.599 1.074-1.01 1.716-1.232.645-.226 1.325-.25 2.04-.073.712.17 1.426.556 2.14 1.155Zm-4.186 4.993c.526.442 1.041.756 1.545.94.504.186.984.222 1.44.108.456-.114.876-.4 1.26-.86.382-.454.59-.916.622-1.385.037-.473-.08-.941-.35-1.406-.27-.465-.668-.918-1.194-1.36-.523-.439-1.032-.747-1.528-.926-.5-.182-.976-.214-1.428-.097-.451.117-.871.407-1.26.87-.572.683-.767 1.373-.584 2.07.187.694.679 1.376 1.477 2.046ZM42.112 30.49l1.081-.935-.094 5.545 5.915.741-1.152.997-5.782-.743 2.84 3.288-.988.853-5.596-6.48.986-.854 2.717 3.146.073-5.558ZM53.913 27.086c.398.58.68 1.148.842 1.706a3.86 3.86 0 0 1 .144 1.6 3.439 3.439 0 0 1-.533 1.43c-.287.438-.683.832-1.189 1.18-.472.326-.96.543-1.468.652a3.558 3.558 0 0 1-1.512-.02 4.038 4.038 0 0 1-1.456-.695c-.467-.349-.9-.812-1.299-1.392-.532-.772-.853-1.518-.963-2.239-.114-.725-.026-1.396.264-2.014.29-.624.773-1.168 1.446-1.632.643-.444 1.304-.687 1.982-.731.682-.047 1.344.11 1.985.472.642.354 1.228.916 1.757 1.683Zm-5.365 3.699c.39.566.803 1.006 1.24 1.318.437.313.89.475 1.36.486.469.012.95-.152 1.443-.492.49-.337.812-.727.968-1.17.161-.447.173-.93.037-1.45-.137-.519-.4-1.062-.79-1.628-.387-.562-.795-.995-1.226-1.299-.434-.308-.884-.466-1.35-.473-.467-.008-.95.16-1.447.503-.733.506-1.104 1.12-1.113 1.84-.005.719.288 1.507.878 2.365ZM62.743 17.446l3.882 7.632-1.044.532-2.53-4.972a15.733 15.733 0 0 1-.3-.627c-.095-.22-.188-.442-.278-.665l-.041.021.636 7.523-.982.5-5.641-4.974-.042.022c.122.206.24.415.354.626.115.204.232.422.35.655l2.508 4.93-1.052.535-3.882-7.632 1.553-.79 5.638 4.984-.675-7.512 1.546-.788ZM72.381 13.78l2.886 8.062-1.229.44-2.509-7.01-4.295 1.54 2.51 7.01-1.229.44-2.885-8.061 6.751-2.42ZM78.913 11.863c.994-.233 1.784-.183 2.37.15.587.333.995.989 1.224 1.967l1.329 5.667-.92.216-.533-1.175-.06.014a4.752 4.752 0 0 1-.55.94 2.788 2.788 0 0 1-.774.671c-.306.179-.7.325-1.181.438-.508.119-.98.136-1.417.051a2.164 2.164 0 0 1-1.117-.588c-.307-.308-.526-.738-.655-1.29-.195-.832-.016-1.549.539-2.15.555-.6 1.501-1.08 2.84-1.437l1.424-.398-.12-.51c-.168-.72-.441-1.188-.818-1.404-.377-.217-.847-.259-1.41-.127a4.171 4.171 0 0 0-1.203.483c-.366.22-.706.457-1.02.713l-.613-.867c.33-.28.722-.547 1.177-.798.455-.251.95-.44 1.488-.566Zm2.712 3.97-1.257.35c-1.03.285-1.723.627-2.079 1.026-.356.4-.47.873-.341 1.42.112.477.339.796.681.956.343.16.752.185 1.23.073.74-.174 1.297-.521 1.672-1.043.376-.521.467-1.193.274-2.014l-.18-.768ZM86.606 10.463l.4 3.571 4.744-.533-.4-3.571 1.288-.145.955 8.51-1.29.144-.43-3.843-4.744.533.431 3.843-1.296.145-.955-8.509 1.297-.145ZM98.432 9.486l-.104 5.382c-.002.104-.007.24-.015.406a22.7 22.7 0 0 1-.034.523l-.041.53a6.73 6.73 0 0 1-.031.414l4.81-7.166 1.593.031-.164 8.561-1.211-.023.101-5.25a33.177 33.177 0 0 1 .058-1.405l.035-.593-4.794 7.158-1.602-.03.165-8.562 1.234.024ZM110.537 10.087l-.805 5.322a22.773 22.773 0 0 1-.17.914l-.11.521c-.03.164-.059.3-.085.406l5.704-6.476 1.576.238-1.28 8.467-1.198-.182.785-5.19a39.596 39.596 0 0 1 .241-1.386l.112-.584-5.687 6.471-1.584-.24 1.28-8.466 1.221.185ZM122.939 16.762l3.504-2.232.723.79-2.976 1.942 1.295 3.31-1.05.23-1.56-3.839.064-.2Zm2.961.95 3.541-2.22.709.784-2.969 1.945 1.287 3.308-1.035.234-1.597-3.85.064-.202ZM135.926 14.924a5.623 5.623 0 0 0-1.406-.436 7.531 7.531 0 0 0-1.273-.101l-.041-1.244a6.417 6.417 0 0 1 1.57.167 8.566 8.566 0 0 1 1.645.551c.831.374 1.495.827 1.993 1.36a4.36 4.36 0 0 1 1.048 1.765c.195.647.25 1.331.165 2.053a7.543 7.543 0 0 1-.635 2.215c-.506 1.126-1.13 2.02-1.872 2.68-.742.66-1.587 1.047-2.536 1.163-.943.118-1.973-.074-3.09-.576-.603-.272-1.1-.538-1.49-.8a7.44 7.44 0 0 1-1.085-.864l.474-1.055c.354.29.722.573 1.101.847.387.27.817.513 1.292.726.637.287 1.234.45 1.793.49a3.44 3.44 0 0 0 1.567-.228c.482-.195.919-.501 1.312-.918.398-.415.747-.938 1.047-1.568l-5.151-2.317.48-1.07 5.137 2.312c.205-.57.312-1.114.321-1.63a3.67 3.67 0 0 0-.249-1.448 3.423 3.423 0 0 0-.801-1.19 4.34 4.34 0 0 0-1.316-.884ZM146.093 32.17l-1.376-.834-1.488-7.68-3.002 4.959-1.136-.689 5.915-9.77 1.136.688-2.865 4.731 7.241-2.079 1.303.79-7.195 2.125 1.467 7.76ZM158.595 34.712c-.554.684-1.145 1.238-1.774 1.66a5.237 5.237 0 0 1-1.946.817 4.386 4.386 0 0 1-2.021-.097c-.683-.19-1.358-.556-2.026-1.097-.688-.557-1.201-1.153-1.539-1.787a4.348 4.348 0 0 1-.519-1.968 5.27 5.27 0 0 1 .414-2.067c.289-.697.71-1.388 1.264-2.073.733-.907 1.526-1.582 2.379-2.024.853-.442 1.737-.608 2.652-.498.919.114 1.838.543 2.757 1.287.879.71 1.465 1.497 1.76 2.358.299.865.326 1.765.08 2.698-.238.933-.732 1.863-1.481 2.79Zm-7.07-5.72c-.609.753-1.029 1.492-1.259 2.217-.231.725-.247 1.415-.047 2.072.203.66.646 1.267 1.331 1.82.688.558 1.372.863 2.051.917.684.058 1.354-.104 2.009-.485.656-.38 1.288-.947 1.897-1.7.927-1.147 1.409-2.237 1.448-3.271.046-1.035-.439-1.964-1.456-2.786-.688-.557-1.374-.868-2.059-.932-.684-.065-1.356.088-2.017.458-.653.369-1.286.932-1.898 1.69ZM162.391 46.89l-.9-.977 7.529-6.954-2.511-2.722a277.11 277.11 0 0 1-3.071 2.166c-.523.363-1.021.703-1.494 1.02-.474.316-.901.59-1.282.822-.624.391-1.192.686-1.705.883-.505.197-.97.265-1.395.204-.418-.061-.81-.29-1.178-.689a2.963 2.963 0 0 1-.55-.874l.82-.758c.043.124.101.252.173.383.075.136.17.265.283.388a.9.9 0 0 0 .811.303c.326-.038.675-.155 1.048-.35a15.59 15.59 0 0 0 1.119-.63c.306-.19.688-.437 1.146-.74.458-.302.973-.65 1.545-1.044a229.52 229.52 0 0 0 1.837-1.282c.652-.453 1.319-.924 2.002-1.413l4.163 4.514-8.39 7.75ZM174.908 54.368c-.727.497-1.452.857-2.176 1.081a5.235 5.235 0 0 1-2.099.224 4.383 4.383 0 0 1-1.907-.673c-.6-.379-1.142-.923-1.626-1.632-.5-.732-.82-1.45-.961-2.154a4.343 4.343 0 0 1 .067-2.035 5.297 5.297 0 0 1 .991-1.86c.477-.585 1.079-1.126 1.805-1.623.963-.659 1.916-1.078 2.86-1.256.944-.179 1.839-.084 2.683.285.848.373 1.605 1.047 2.272 2.023.638.934.974 1.855 1.009 2.765.038.915-.194 1.784-.698 2.607-.496.826-1.236 1.575-2.22 2.248Zm-5.13-7.509c-.8.547-1.414 1.135-1.843 1.763-.429.627-.642 1.285-.64 1.97.005.692.256 1.4.753 2.127.499.731 1.066 1.22 1.702 1.467.638.251 1.326.289 2.063.112.738-.176 1.506-.538 2.306-1.084 1.216-.833 1.992-1.739 2.326-2.718.341-.978.143-2.007-.595-3.086-.499-.731-1.068-1.226-1.705-1.484-.637-.259-1.325-.305-2.064-.14-.731.166-1.499.523-2.303 1.073ZM173.755 64.453l7.561-7.732-.026-.056c-.185.108-.414.235-.686.378a46.288 46.288 0 0 1-1.891.936l-6.55 3.035-.518-1.12 10.363-4.802.827 1.787-7.1 7.277.023.05 10.161-.663.821 1.773-10.364 4.802-.551-1.191 6.635-3.075c.307-.142.616-.28.928-.412a46.748 46.748 0 0 1 1.638-.665L185 64.72l-10.789.72-.456-.986ZM183.094 77.581l-3.839-1.637.248-1.025 3.301 1.32 1.97-2.945.775.71-2.254 3.515-.201.062Zm-.922-2.994-3.832-1.615.247-1.033 3.3 1.322 1.971-2.946.776.717-2.26 3.493-.202.062Z" fill="#105720"/></symbol><symbol fill="none" viewBox="0 0 24 24" id="search" xmlns="http://www.w3.org/2000/svg"><path d="M11 19a8 8 0 1 0 0-16 8 8 0 0 0 0 16ZM20.998 21l-4.35-4.35" stroke="#F95707" stroke-width="1.5" stroke-linecap="round" stroke-linejoin="round"/></symbol><symbol fill="none" viewBox="0 0 16 14" id="tg" xmlns="http://www.w3.org/2000/svg"><path d="M.745 5.78 14.935.07c.658-.248 1.233.168 1.02 1.207l.001-.001-2.416 11.879c-.18.842-.659 1.047-1.33.65l-3.679-2.83-1.774 1.784c-.196.205-.362.378-.742.378l.261-3.908L13.095 2.8c.297-.273-.066-.426-.458-.155L4.211 8.182.578 7c-.788-.262-.806-.823.167-1.22Z" fill="#105720"/></symbol><symbol fill="none" viewBox="0 0 24 24" id="trending-up" xmlns="http://www.w3.org/2000/svg"><path d="m23 6-9.5 9.5-5-5L1 18" stroke="#fff" stroke-width="1.5" stroke-linecap="round" stroke-linejoin="round"/><path d="M17 6h6v6" stroke="#fff" stroke-width="1.5" stroke-linecap="round" stroke-linejoin="round"/></symbol><symbol fill="none" viewBox="0 0 24 24" id="truck" xmlns="http://www.w3.org/2000/svg"><path d="M16 3H1v13h15V3ZM16 8h4l3 3v5h-7V8ZM5.5 21a2.5 2.5 0 1 0 0-5 2.5 2.5 0 0 0 0 5ZM18.5 21a2.5 2.5 0 1 0 0-5 2.5 2.5 0 0 0 0 5Z" stroke="#fff" stroke-width="1.5" stroke-linecap="round" stroke-linejoin="round"/></symbol><symbol fill="none" viewBox="0 0 16 18" id="vib" xmlns="http://www.w3.org/2000/svg"><path d="M9.778 0H6.222c-1.65 0-3.233.664-4.4 1.845A6.34 6.34 0 0 0 0 6.3V9c0 1.193.333 2.362.963 3.37a6.248 6.248 0 0 0 2.593 2.326v3.008a.304.304 0 0 0 .183.273.294.294 0 0 0 .321-.061L6.642 15.3h3.136c1.65 0 3.233-.664 4.4-1.845A6.34 6.34 0 0 0 16 9V6.3a6.341 6.341 0 0 0-1.822-4.456A6.184 6.184 0 0 0 9.778 0Zm2.329 11.809-.89.9c-.946.938-3.417-.133-5.595-2.385C3.444 8.07 2.49 5.544 3.4 4.606l.889-.9a.929.929 0 0 1 1.264.013l1.298 1.35a.887.887 0 0 1 .22.828.888.888 0 0 1-.575.628.851.851 0 0 0-.492.402.87.87 0 0 0-.082.633c.222 1 1.476 2.25 2.41 2.496.21.05.431.022.622-.08a.897.897 0 0 0 .415-.478.883.883 0 0 1 .64-.572.86.86 0 0 1 .815.257l1.296 1.35a.952.952 0 0 1-.013 1.276ZM8.809 4.275c-.088 0-.177.005-.265.016a.293.293 0 0 1-.291-.154.303.303 0 0 1 .117-.407.294.294 0 0 1 .11-.035 2.948 2.948 0 0 1 2.426.86 3.023 3.023 0 0 1 .854 2.454.302.302 0 0 1-.211.255.293.293 0 0 1-.314-.1.3.3 0 0 1-.064-.22 2.42 2.42 0 0 0-.683-1.967 2.36 2.36 0 0 0-1.68-.702Zm1.778 2.401a.303.303 0 0 1-.096.196.296.296 0 0 1-.498-.196c0-.318-.124-.623-.347-.848a1.177 1.177 0 0 0-.837-.351.294.294 0 0 1-.298-.18.305.305 0 0 1 .176-.406.295.295 0 0 1 .122-.015c.471 0 .924.19 1.257.527.333.338.52.796.52 1.273Zm2.26.974a.304.304 0 0 1-.242.249.294.294 0 0 1-.311-.149.303.303 0 0 1-.025-.24 3.623 3.623 0 0 0-.946-3.376A3.533 3.533 0 0 0 8.809 3.08h-.276a.293.293 0 0 1-.215-.071.301.301 0 0 1 .17-.527 4.13 4.13 0 0 1 3.254 1.221 4.235 4.235 0 0 1 1.216 2.973c0 .328-.037.655-.111.974Z" fill="#105720"/></symbol><symbol fill="none" viewBox="0 0 16 16" id="wat" xmlns="http://www.w3.org/2000/svg"><path d="M7.996 0a7.998 7.998 0 0 0-6.477 12.69l-1 2.972 3.078-.984a7.998 7.998 0 0 0 10.82-11.456A7.999 7.999 0 0 0 7.995 0Zm4.251 11.314-.851.852c-.896.896-3.272-.09-5.378-2.2-2.106-2.11-3.05-4.48-2.198-5.366l.852-.852a.894.894 0 0 1 1.21 0L7.138 5a.834.834 0 0 1-.314 1.388.814.814 0 0 0-.538.988c.224.94 1.434 2.106 2.332 2.33a.854.854 0 0 0 .978-.544.836.836 0 0 1 1.4-.314l1.253 1.256a.894.894 0 0 1-.002 1.21Z" fill="#105720"/></symbol></svg>