<svg width="200" height="200" viewBox="0 0 200 200" fill="none" xmlns="http://www.w3.org/2000/svg">
<path d="M193.338 101.699L193.139 104.927C193.051 106.351 192.771 107.409 192.301 108.1C191.83 108.791 191.083 109.105 190.059 109.042C189.617 109.014 189.225 108.904 188.882 108.711C188.544 108.523 188.27 108.26 188.061 107.924C187.853 107.588 187.719 107.18 187.659 106.702L187.582 106.697C187.473 107.191 187.302 107.624 187.071 107.996C186.839 108.368 186.529 108.651 186.142 108.846C185.754 109.042 185.271 109.121 184.694 109.086C183.993 109.042 183.41 108.842 182.947 108.484C182.483 108.132 182.145 107.652 181.932 107.044C181.724 106.436 181.646 105.727 181.696 104.916L181.938 100.994L193.338 101.699ZM188.367 102.722L188.232 104.905C188.171 105.898 188.292 106.595 188.596 106.994C188.9 107.399 189.366 107.621 189.995 107.66C190.645 107.7 191.127 107.501 191.441 107.061C191.755 106.626 191.943 105.912 192.004 104.92L192.126 102.955L188.367 102.722ZM187.252 102.653L182.987 102.389L182.84 104.76C182.778 105.773 182.931 106.503 183.3 106.949C183.674 107.394 184.199 107.638 184.875 107.68C185.307 107.707 185.682 107.633 186 107.46C186.318 107.292 186.571 107 186.759 106.583C186.951 106.172 187.069 105.614 187.113 104.907L187.252 102.653Z" fill="#105720"/>
<path d="M189.322 114.332L184.038 113.303C183.936 113.283 183.804 113.255 183.641 113.218C183.484 113.182 183.314 113.141 183.132 113.095C182.955 113.049 182.783 113.005 182.616 112.962C182.454 112.925 182.32 112.891 182.214 112.86L188.446 118.834L188.142 120.398L179.737 118.761L179.968 117.572L185.121 118.576C185.285 118.608 185.494 118.652 185.749 118.706C186.003 118.761 186.252 118.818 186.496 118.876C186.744 118.935 186.937 118.98 187.074 119.012L180.847 113.055L181.153 111.483L189.558 113.121L189.322 114.332Z" fill="#105720"/>
<path d="M185.223 130.36L178.127 128.055L177.749 129.222L173.885 127.967L174.273 126.771L177.089 127.685L178.96 121.919L176.143 121.004L176.527 119.822L180.39 121.077L180.183 121.716C180.676 122.391 181.257 123.007 181.925 123.563C182.593 124.12 183.323 124.614 184.113 125.046C184.909 125.48 185.736 125.841 186.595 126.131L185.223 130.36ZM184.631 128.845L185.257 126.913C184.549 126.633 183.847 126.288 183.154 125.876C182.459 125.47 181.816 125.02 181.226 124.527C180.641 124.036 180.154 123.528 179.766 123.002L178.515 126.859L184.631 128.845Z" fill="#105720"/>
<path d="M182.447 137.533C182.146 138.197 181.74 138.699 181.231 139.04C180.722 139.38 180.145 139.556 179.5 139.566C178.859 139.578 178.186 139.424 177.479 139.103L176.747 138.77L179.191 133.384C178.269 132.983 177.469 132.894 176.79 133.117C176.11 133.341 175.589 133.853 175.225 134.655C175.001 135.148 174.849 135.605 174.766 136.025C174.684 136.445 174.638 136.899 174.629 137.387L173.59 136.915C173.594 136.442 173.643 135.992 173.739 135.567C173.833 135.146 173.999 134.672 174.238 134.146C174.578 133.397 175.027 132.811 175.584 132.389C176.144 131.974 176.79 131.747 177.523 131.708C178.256 131.669 179.051 131.845 179.909 132.235C180.749 132.616 181.411 133.086 181.895 133.644C182.383 134.208 182.676 134.822 182.776 135.485C182.873 136.153 182.763 136.836 182.447 137.533ZM181.486 137.079C181.772 136.448 181.794 135.852 181.552 135.29C181.309 134.727 180.834 134.243 180.127 133.835L178.254 137.962C178.721 138.168 179.162 138.28 179.578 138.297C179.996 138.321 180.367 138.235 180.69 138.039C181.019 137.845 181.284 137.525 181.486 137.079Z" fill="#105720"/>
<path d="M172.045 147.403C171.442 147.041 170.951 146.639 170.572 146.199C170.192 145.758 169.928 145.292 169.779 144.802C169.63 144.311 169.595 143.804 169.673 143.279C169.752 142.762 169.95 142.24 170.267 141.713C170.562 141.222 170.917 140.822 171.333 140.513C171.752 140.211 172.213 140.009 172.719 139.905C173.222 139.807 173.759 139.817 174.331 139.936C174.901 140.06 175.487 140.303 176.09 140.665C176.893 141.148 177.495 141.695 177.894 142.305C178.297 142.918 178.495 143.566 178.486 144.247C178.48 144.936 178.266 145.631 177.845 146.332C177.443 147.002 176.942 147.497 176.343 147.817C175.741 148.142 175.073 148.273 174.34 148.209C173.609 148.152 172.844 147.884 172.045 147.403ZM175.398 141.817C174.809 141.463 174.251 141.234 173.724 141.13C173.197 141.026 172.718 141.066 172.286 141.249C171.853 141.433 171.483 141.782 171.175 142.295C170.869 142.804 170.737 143.293 170.778 143.761C170.816 144.234 171.005 144.678 171.344 145.095C171.683 145.512 172.147 145.897 172.736 146.251C173.321 146.603 173.873 146.828 174.39 146.926C174.913 147.028 175.388 146.985 175.816 146.799C176.243 146.612 176.613 146.26 176.924 145.742C177.382 144.978 177.466 144.266 177.176 143.606C176.884 142.95 176.291 142.354 175.398 141.817Z" fill="#105720"/>
<path d="M163.284 158.591C162.749 158.135 162.33 157.659 162.028 157.162C161.726 156.665 161.542 156.162 161.475 155.654C161.409 155.146 161.457 154.639 161.619 154.135C161.783 153.637 162.063 153.155 162.462 152.687C162.833 152.25 163.249 151.914 163.711 151.677C164.172 151.448 164.661 151.324 165.177 151.305C165.689 151.29 166.217 151.388 166.762 151.599C167.304 151.814 167.843 152.15 168.378 152.606C169.091 153.214 169.595 153.852 169.888 154.52C170.186 155.191 170.275 155.862 170.155 156.533C170.036 157.211 169.711 157.862 169.181 158.485C168.675 159.08 168.1 159.486 167.456 159.704C166.809 159.926 166.129 159.945 165.417 159.762C164.704 159.586 163.994 159.196 163.284 158.591ZM167.507 153.63C166.984 153.184 166.471 152.866 165.968 152.677C165.465 152.489 164.986 152.449 164.529 152.56C164.073 152.67 163.65 152.954 163.262 153.41C162.877 153.862 162.667 154.322 162.63 154.791C162.591 155.263 162.704 155.733 162.97 156.2C163.237 156.666 163.632 157.122 164.155 157.568C164.674 158.011 165.181 158.323 165.676 158.505C166.175 158.691 166.65 158.726 167.103 158.613C167.555 158.499 167.977 158.212 168.369 157.752C168.946 157.073 169.146 156.385 168.968 155.686C168.787 154.991 168.3 154.305 167.507 153.63Z" fill="#105720"/>
<path d="M157.432 169.884L156.348 170.815L156.462 165.271L150.549 164.508L151.705 163.516L157.484 164.279L154.657 160.981L155.647 160.132L161.22 166.632L160.23 167.482L157.525 164.327L157.432 169.884Z" fill="#105720"/>
<path d="M145.318 173.407C144.923 172.825 144.646 172.254 144.488 171.695C144.329 171.135 144.285 170.602 144.356 170.094C144.427 169.586 144.608 169.111 144.899 168.668C145.189 168.232 145.588 167.841 146.097 167.496C146.571 167.174 147.061 166.961 147.569 166.856C148.075 166.758 148.579 166.768 149.081 166.887C149.579 167.008 150.062 167.244 150.532 167.592C150.997 167.944 151.426 168.411 151.821 168.993C152.347 169.769 152.662 170.518 152.768 171.24C152.876 171.966 152.783 172.636 152.489 173.251C152.193 173.873 151.707 174.414 151.031 174.873C150.384 175.312 149.722 175.551 149.043 175.59C148.361 175.631 147.7 175.469 147.062 175.103C146.422 174.744 145.841 174.178 145.318 173.407ZM150.709 169.748C150.323 169.179 149.913 168.736 149.479 168.42C149.045 168.105 148.593 167.939 148.123 167.924C147.654 167.909 147.171 168.07 146.676 168.406C146.184 168.74 145.859 169.127 145.699 169.569C145.535 170.014 145.519 170.497 145.652 171.018C145.785 171.538 146.044 172.083 146.43 172.652C146.812 173.217 147.218 173.653 147.646 173.96C148.078 174.272 148.527 174.433 148.993 174.443C149.46 174.454 149.943 174.29 150.443 173.95C151.18 173.45 151.556 172.84 151.57 172.118C151.58 171.4 151.293 170.61 150.709 169.748Z" fill="#105720"/>
<path d="M136.843 182.743L132.989 175.096L134.036 174.569L136.546 179.55C136.649 179.754 136.749 179.964 136.845 180.178C136.939 180.399 137.031 180.621 137.12 180.844L137.162 180.823L136.553 173.298L137.537 172.802L143.16 177.796L143.202 177.775C143.08 177.568 142.963 177.359 142.85 177.147C142.735 176.943 142.619 176.724 142.502 176.491L140.013 171.552L141.066 171.021L144.92 178.667L143.364 179.452L137.745 174.447L138.391 181.961L136.843 182.743Z" fill="#105720"/>
<path d="M126.637 186.539L123.812 178.456L125.044 178.025L127.5 185.054L131.806 183.547L129.35 176.518L130.582 176.087L133.406 184.17L126.637 186.539Z" fill="#105720"/>
<path d="M120.231 188.333C119.236 188.563 118.446 188.51 117.861 188.175C117.276 187.839 116.87 187.182 116.645 186.202L115.338 180.53L116.259 180.318L116.787 181.495L116.848 181.481C117.011 181.123 117.195 180.81 117.401 180.543C117.608 180.282 117.867 180.059 118.177 179.875C118.484 179.698 118.878 179.553 119.36 179.442C119.868 179.325 120.34 179.31 120.777 179.396C121.208 179.483 121.58 179.681 121.891 179.988C122.198 180.297 122.415 180.728 122.542 181.282C122.734 182.114 122.551 182.83 121.994 183.428C121.438 184.027 120.489 184.503 119.148 184.855L117.724 185.248L117.841 185.758C118.007 186.478 118.278 186.948 118.655 187.166C119.031 187.383 119.501 187.427 120.064 187.297C120.5 187.197 120.902 187.037 121.269 186.819C121.635 186.601 121.976 186.364 122.292 186.11L122.901 186.98C122.57 187.259 122.177 187.524 121.721 187.773C121.265 188.022 120.768 188.209 120.231 188.333ZM117.534 184.353L118.793 184.007C119.824 183.726 120.518 183.387 120.875 182.989C121.232 182.591 121.348 182.118 121.222 181.57C121.112 181.093 120.886 180.774 120.544 180.612C120.202 180.45 119.792 180.425 119.315 180.535C118.574 180.706 118.015 181.051 117.638 181.571C117.261 182.091 117.167 182.762 117.356 183.585L117.534 184.353Z" fill="#105720"/>
<path d="M112.621 189.632L112.234 186.059L107.488 186.574L107.875 190.147L106.586 190.286L105.664 181.774L106.953 181.634L107.369 185.479L112.115 184.964L111.699 181.119L112.996 180.979L113.918 189.491L112.621 189.632Z" fill="#105720"/>
<path d="M100.68 190.505L100.805 185.123C100.807 185.019 100.813 184.884 100.822 184.717C100.831 184.556 100.843 184.382 100.857 184.195C100.872 184.013 100.887 183.836 100.901 183.664C100.91 183.498 100.921 183.36 100.934 183.251L96.0953 190.398L94.502 190.362L94.7002 181.801L95.9108 181.829L95.7893 187.078C95.7854 187.245 95.7779 187.458 95.7666 187.718C95.7554 187.978 95.7417 188.233 95.7255 188.483C95.7092 188.738 95.6968 188.936 95.6883 189.076L100.511 181.936L102.112 181.973L101.914 190.533L100.68 190.505Z" fill="#105720"/>
<path d="M88.9953 189.852L89.8206 184.533C89.8365 184.43 89.8599 184.296 89.8906 184.132C89.9205 183.974 89.9549 183.802 89.994 183.619C90.0322 183.44 90.0697 183.267 90.1063 183.099C90.137 182.935 90.1659 182.8 90.193 182.693L84.4637 189.148L82.8889 188.903L84.2016 180.442L85.3982 180.628L84.5933 185.816C84.5678 185.98 84.5324 186.191 84.4874 186.448C84.4423 186.704 84.3955 186.955 84.3468 187.201C84.2974 187.451 84.2594 187.646 84.2326 187.784L89.9452 181.334L91.5278 181.58L90.2151 190.041L88.9953 189.852Z" fill="#105720"/>
<path d="M76.6436 183.113L73.1315 185.332L72.4111 184.539L75.3945 182.608L74.1128 179.293L75.1633 179.067L76.7087 182.912L76.6436 183.113ZM73.6863 182.152L70.137 184.359L69.4315 183.572L72.4074 181.638L71.1331 178.325L72.1688 178.095L73.7514 181.952L73.6863 182.152Z" fill="#105720"/>
<path d="M63.6305 184.887C64.1095 185.104 64.5776 185.251 65.0349 185.328C65.4874 185.402 65.9117 185.437 66.3078 185.434L66.344 186.678C65.8527 186.689 65.3297 186.631 64.775 186.505C64.2203 186.379 63.6726 186.193 63.1321 185.947C62.3022 185.57 61.6396 185.115 61.1441 184.581C60.6418 184.049 60.2945 183.46 60.1024 182.812C59.9103 182.164 59.8577 181.479 59.9448 180.758C60.0319 180.037 60.2466 179.299 60.5888 178.545C61.0989 177.421 61.7261 176.53 62.4704 175.873C63.2148 175.216 64.0614 174.831 65.0104 174.719C65.9545 174.604 66.9838 174.8 68.0981 175.306C68.7003 175.58 69.1963 175.848 69.586 176.111C69.9732 176.367 70.3336 176.657 70.6673 176.98L70.1895 178.033C69.836 177.741 69.47 177.457 69.0914 177.182C68.706 176.91 68.2762 176.666 67.802 176.45C67.1666 176.162 66.5696 175.996 66.0111 175.954C65.4478 175.91 64.9251 175.984 64.4429 176.177C63.9608 176.37 63.5224 176.674 63.1279 177.09C62.7286 177.503 62.3777 178.025 62.075 178.654L67.2175 180.99L66.7332 182.058L61.605 179.727C61.398 180.297 61.2891 180.839 61.2781 181.355C61.2651 181.875 61.3461 182.359 61.5213 182.804C61.6966 183.25 61.962 183.648 62.3178 183.999C62.6666 184.352 63.1042 184.648 63.6305 184.887Z" fill="#105720"/>
<path d="M53.3202 167.452L54.6934 168.292L56.1529 175.977L59.173 171.029L60.3063 171.722L54.3556 181.471L53.2224 180.779L56.1041 176.057L48.8561 178.11L47.5562 177.316L54.759 175.217L53.3202 167.452Z" fill="#105720"/>
<path d="M40.9372 164.878C41.4929 164.195 42.0861 163.644 42.7168 163.224C43.3441 162.808 43.9938 162.538 44.6658 162.414C45.3304 162.291 46.0038 162.326 46.686 162.519C47.3682 162.712 48.0423 163.08 48.7084 163.623C49.3947 164.183 49.9055 164.78 50.2406 165.416C50.5717 166.049 50.7424 166.706 50.7527 167.386C50.7589 168.063 50.6183 168.751 50.3308 169.451C50.0393 170.147 49.6156 170.837 49.0599 171.519C48.3234 172.424 47.5279 173.096 46.6734 173.535C45.819 173.974 44.9345 174.137 44.0198 174.023C43.1011 173.906 42.1836 173.474 41.2672 172.727C40.3912 172.013 39.8073 171.224 39.5156 170.361C39.2199 169.496 39.1965 168.596 39.4454 167.663C39.687 166.732 40.1842 165.803 40.9372 164.878ZM47.9859 170.624C48.5975 169.873 49.0199 169.135 49.2531 168.411C49.4864 167.688 49.5046 166.997 49.3079 166.339C49.1072 165.678 48.6657 165.07 47.9834 164.514C47.2971 163.954 46.6143 163.646 45.935 163.59C45.2516 163.53 44.5814 163.689 43.9243 164.067C43.2671 164.446 42.6328 165.01 42.0212 165.762C41.0906 166.905 40.6041 167.993 40.5617 169.027C40.512 170.062 40.9937 170.992 42.007 171.818C42.6933 172.377 43.3785 172.691 44.0626 172.758C44.7467 172.825 45.4198 172.675 46.0817 172.307C46.7362 171.94 47.371 171.379 47.9859 170.624Z" fill="#105720"/>
<path d="M37.1811 152.615L38.078 153.594L30.5234 160.522L33.0244 163.253C33.5036 162.912 34.0055 162.558 34.5301 162.19C35.0547 161.822 35.5791 161.458 36.1034 161.097C36.6277 160.736 37.127 160.399 37.6014 160.084C38.0758 159.769 38.5041 159.496 38.8864 159.266C39.5114 158.876 40.0806 158.584 40.594 158.389C41.1 158.193 41.5654 158.127 41.9901 158.19C42.4075 158.252 42.7991 158.483 43.1649 158.883C43.2881 159.017 43.3977 159.164 43.494 159.323C43.5867 159.478 43.6596 159.623 43.7127 159.759L42.8893 160.514C42.8467 160.39 42.7897 160.262 42.7181 160.13C42.6429 159.994 42.5491 159.864 42.4365 159.742C42.2149 159.5 41.9448 159.397 41.6262 159.435C41.3003 159.473 40.9507 159.588 40.5774 159.782C40.2006 159.972 39.8267 160.181 39.4556 160.408C39.1489 160.597 38.766 160.843 38.3069 161.143C37.8479 161.444 37.3316 161.79 36.7581 162.182C36.1807 162.577 35.567 163.002 34.917 163.457C34.2635 163.908 33.5945 164.376 32.9099 164.863L28.7627 160.334L37.1811 152.615Z" fill="#105720"/>
<path d="M24.6614 144.932C25.3915 144.44 26.1193 144.085 26.8448 143.867C27.566 143.651 28.2661 143.582 28.9452 143.658C29.617 143.733 30.2512 143.962 30.8478 144.345C31.4444 144.729 31.9825 145.277 32.462 145.99C32.9561 146.725 33.2711 147.445 33.4069 148.151C33.5398 148.853 33.5124 149.53 33.3245 150.184C33.1337 150.834 32.7991 151.452 32.3207 152.038C31.8393 152.619 31.2336 153.156 30.5035 153.647C29.5358 154.299 28.5793 154.711 27.6341 154.883C26.6889 155.054 25.7953 154.953 24.9532 154.578C24.1083 154.199 23.3559 153.519 22.6961 152.538C22.0654 151.6 21.7359 150.676 21.7075 149.765C21.6762 148.851 21.9152 147.984 22.4244 147.164C22.9264 146.342 23.6721 145.598 24.6614 144.932ZM29.7361 152.478C30.5396 151.937 31.1581 151.354 31.5916 150.73C32.0252 150.105 32.2434 149.449 32.2462 148.763C32.2462 148.072 32.0006 147.362 31.5094 146.631C31.0153 145.897 30.4515 145.403 29.8179 145.152C29.1814 144.896 28.4938 144.854 27.7551 145.025C27.0165 145.195 26.2453 145.551 25.4418 146.092C24.2192 146.916 23.4373 147.816 23.0963 148.793C22.748 149.768 22.9387 150.798 23.6682 151.883C24.1623 152.618 24.7269 153.117 25.3619 153.38C25.997 153.643 26.6846 153.695 27.4248 153.535C28.1578 153.375 28.9282 153.022 29.7361 152.478Z" fill="#105720"/>
<path d="M26.03 135.099L18.44 142.802L18.466 142.859C18.6514 142.751 18.8805 142.626 19.1533 142.484C19.4261 142.341 19.726 142.189 20.053 142.028C20.3753 141.868 20.7068 141.711 21.0476 141.554L27.6086 138.543L28.1228 139.666L17.7418 144.429L16.9216 142.64L24.0489 135.389L24.0261 135.339L13.862 135.963L13.0483 134.188L23.4294 129.424L23.9762 130.617L17.3301 133.667C17.0224 133.808 16.7125 133.945 16.4005 134.077C16.0837 134.21 15.7848 134.333 15.5037 134.445C15.2179 134.559 14.97 134.656 14.7599 134.735L14.786 134.792L25.5776 134.112L26.03 135.099Z" fill="#105720"/>
<path d="M16.7104 121.698L20.5369 123.364L20.2805 124.387L16.9904 123.041L14.9973 125.972L14.2285 125.256L16.5084 121.759L16.7104 121.698ZM17.6092 124.699L21.4289 126.343L21.1748 127.374L17.8847 126.028L15.8916 128.958L15.1205 128.235L17.4072 124.76L17.6092 124.699Z" fill="#105720"/>
<path d="M6.65745 98.6806L6.84448 95.4516C6.927 94.027 7.20223 92.9682 7.67016 92.2754C8.13809 91.5825 8.88421 91.2658 9.90854 91.3252C10.3505 91.3508 10.7433 91.4596 11.0869 91.6517C11.4257 91.8383 11.7001 92.0994 11.9102 92.435C12.1203 92.7707 12.2559 93.1776 12.3169 93.6559L12.3948 93.6604C12.5018 93.1658 12.6703 92.7321 12.9006 92.3594C13.1309 91.9867 13.4395 91.702 13.8266 91.5053C14.2136 91.3086 14.6957 91.227 15.2728 91.2604C15.9748 91.3011 16.558 91.4993 17.0226 91.8549C17.4875 92.2053 17.8276 92.6841 18.0428 93.2913C18.2529 93.8982 18.3344 94.6073 18.2874 95.4184L18.0602 99.3415L6.65745 98.6806ZM11.6245 97.6382L11.751 95.4543C11.8085 94.4612 11.6845 93.7653 11.3789 93.3668C11.0736 92.963 10.6064 92.7429 9.97722 92.7064C9.32727 92.6688 8.84605 92.8704 8.53357 93.3114C8.22139 93.7472 8.03654 94.4617 7.97901 95.4548L7.86517 97.4203L11.6245 97.6382ZM12.7398 97.7028L17.0061 97.9501L17.1434 95.579C17.2021 94.5651 17.0461 93.8361 16.6753 93.392C16.2994 92.9477 15.7734 92.7059 15.0975 92.6667C14.6659 92.6417 14.2911 92.7165 13.9732 92.8911C13.6556 93.0605 13.4039 93.3537 13.218 93.7708C13.0272 94.1823 12.9113 94.7416 12.8704 95.4488L12.7398 97.7028Z" fill="#105720"/>
<path d="M10.5628 86.4162L15.854 87.4051C15.9564 87.4243 16.089 87.4517 16.2519 87.4874C16.4097 87.5222 16.5797 87.562 16.7621 87.6066C16.9394 87.6504 17.1116 87.6931 17.2786 87.735C17.4415 87.7707 17.5757 87.8037 17.6813 87.8341L11.4043 81.9081L11.6967 80.3414L20.1135 81.9145L19.8913 83.1049L14.7306 82.1404C14.5668 82.1098 14.3574 82.068 14.1023 82.015C13.8473 81.962 13.5979 81.9075 13.354 81.8513C13.1051 81.7942 12.912 81.7501 12.7747 81.7192L19.0469 87.6283L18.7531 89.2027L10.3363 87.6296L10.5628 86.4162Z" fill="#105720"/>
<path d="M14.6136 70.1175L21.7184 72.3952L22.0924 71.227L25.961 72.4672L25.5774 73.6652L22.7578 72.7612L20.9093 78.535L23.7289 79.4389L23.3501 80.622L19.4815 79.3818L19.6864 78.7419C19.1909 78.0689 18.608 77.4554 17.9377 76.9015C17.2675 76.3475 16.5361 75.856 15.7438 75.4269C14.9465 74.9963 14.118 74.6377 13.2582 74.3511L14.6136 70.1175ZM15.2121 71.6302L14.5927 73.5648C15.3026 73.8415 16.0049 74.1843 16.6999 74.593C17.3964 74.9968 18.0407 75.444 18.6328 75.9347C19.22 76.4237 19.7086 76.9304 20.0985 77.4547L21.3349 73.5931L15.2121 71.6302Z" fill="#105720"/>
<path d="M17.3248 62.9833C17.6237 62.3182 18.0271 61.8143 18.535 61.4717C19.043 61.1291 19.6195 60.9516 20.2646 60.9392C20.9049 60.9246 21.579 61.0765 22.2867 61.3949L23.0205 61.725L20.5967 67.1196C21.5198 67.5177 22.3205 67.6038 22.9988 67.3778C23.677 67.1518 24.1965 66.6374 24.5572 65.8345C24.7792 65.3404 24.9305 64.883 25.011 64.4624C25.0915 64.0417 25.1357 63.5875 25.1435 63.0999L26.1837 63.5679C26.1823 64.0413 26.1345 64.4909 26.0402 64.9168C25.948 65.338 25.7835 65.8122 25.5465 66.3395C25.2093 67.0902 24.7627 67.6774 24.2068 68.1012C23.6483 68.5182 23.0029 68.7475 22.2704 68.7892C21.5379 68.8309 20.7418 68.6583 19.8821 68.2716C19.0414 67.8933 18.3777 67.4262 17.8909 66.8703C17.4015 66.3074 17.1058 65.6947 17.0039 65.032C16.9041 64.3646 17.0111 63.6817 17.3248 62.9833ZM18.2874 63.4335C18.0035 64.0653 17.9838 64.6619 18.2284 65.2231C18.473 65.7843 18.9498 66.2673 19.6588 66.6719L21.5158 62.5387C21.0482 62.334 20.6067 62.2239 20.1911 62.2083C19.773 62.1858 19.4025 62.2732 19.0797 62.4707C18.7521 62.666 18.488 62.9869 18.2874 63.4335Z" fill="#105720"/>
<path d="M27.7601 52.9042C28.3641 53.2642 28.8566 53.6639 29.2375 54.1032C29.6185 54.5426 29.8844 55.0072 30.0351 55.4973C30.1859 55.9873 30.2232 56.4947 30.1473 57.0194C30.0695 57.5369 29.8734 58.0598 29.559 58.5878C29.266 59.0801 28.9119 59.4815 28.4968 59.7918C28.0798 60.0951 27.6188 60.2993 27.1137 60.4045C26.6113 60.5052 26.0737 60.497 25.5009 60.3799C24.9308 60.2583 24.3437 60.0175 23.7398 59.6575C22.9345 59.1774 22.3313 58.6329 21.9301 58.0239C21.5244 57.4122 21.3245 56.7655 21.3303 56.0838C21.3343 55.3949 21.5454 54.6992 21.9637 53.9965C22.3634 53.3252 22.8622 52.8283 23.4604 52.5058C24.0612 52.1787 24.7283 52.0458 25.4616 52.107C26.1932 52.1611 26.9593 52.4268 27.7601 52.9042ZM24.4271 58.5028C25.0177 58.8548 25.5766 59.0819 26.1038 59.1839C26.631 59.286 27.1104 59.2443 27.542 59.059C27.9736 58.8736 28.3426 58.5236 28.649 58.009C28.9527 57.4988 29.0832 57.0097 29.0406 56.5416C29.0007 56.0691 28.8103 55.6252 28.4696 55.2099C28.1289 54.7945 27.6633 54.4109 27.0728 54.0588C26.4867 53.7095 25.9345 53.4864 25.4163 53.3897C24.8935 53.2904 24.4186 53.3347 23.9915 53.5227C23.5644 53.7107 23.1963 54.0643 22.8872 54.5834C22.4316 55.3487 22.35 56.061 22.6424 56.7204C22.9375 57.3753 23.5324 57.9695 24.4271 58.5028Z" fill="#105720"/>
<path d="M36.1341 42.0564C36.6726 42.5086 37.0947 42.982 37.4003 43.4767C37.706 43.9714 37.894 44.4727 37.9643 44.9806C38.0346 45.4885 37.9902 45.9953 37.8312 46.501C37.6715 46.9995 37.3942 47.4841 36.9993 47.955C36.6312 48.394 36.2174 48.7335 35.7579 48.9734C35.2978 49.2059 34.8101 49.3336 34.2947 49.3565C33.7826 49.3754 33.2533 49.2812 32.7067 49.0738C32.1634 48.8625 31.6225 48.5307 31.084 48.0786C30.3661 47.4757 29.8579 46.8416 29.5595 46.1761C29.257 45.5073 29.1633 44.8369 29.2782 44.1649C29.3925 43.4856 29.7123 42.8326 30.2378 42.2061C30.7398 41.6074 31.3118 41.1968 31.9539 40.9743C32.5993 40.7477 33.279 40.7234 33.9931 40.9013C34.7065 41.0719 35.4202 41.4569 36.1341 42.0564ZM31.9475 47.049C32.474 47.4911 32.9892 47.8047 33.4933 47.9899C33.9973 48.1751 34.4772 48.2108 34.9329 48.097C35.3886 47.9831 35.8089 47.6968 36.1937 47.2378C36.5753 46.7829 36.7825 46.321 36.8154 45.8521C36.8516 45.3793 36.7349 44.9106 36.4651 44.446C36.1953 43.9815 35.7972 43.5282 35.2707 43.0861C34.7482 42.6473 34.2389 42.3387 33.7428 42.1602C33.2428 41.9784 32.7669 41.946 32.3152 42.0632C31.8635 42.1804 31.4435 42.4704 31.0553 42.9333C30.483 43.6158 30.2884 44.3059 30.4714 45.0036C30.6577 45.6973 31.1497 46.3791 31.9475 47.049Z" fill="#105720"/>
<path d="M42.1116 30.4903L43.193 29.5551L43.0993 35.1001L49.0144 35.8411L47.8621 36.8376L42.08 36.0952L44.9193 39.3826L43.9324 40.236L38.3356 33.7559L39.3225 32.9024L42.0392 36.0479L42.1116 30.4903Z" fill="#105720"/>
<path d="M53.9125 27.0864C54.3113 27.6655 54.5922 28.2342 54.7552 28.7923C54.9182 29.3505 54.966 29.8838 54.8986 30.392C54.8312 30.9003 54.6536 31.3771 54.3657 31.8223C54.0792 32.2602 53.6829 32.6536 53.177 33.0025C52.7053 33.3276 52.2161 33.5447 51.7093 33.6537C51.2039 33.7554 50.6998 33.7488 50.1969 33.6337C49.6982 33.5156 49.213 33.284 48.7413 32.9386C48.2738 32.5903 47.8407 32.1266 47.442 31.5475C46.9103 30.7753 46.5892 30.0288 46.4786 29.308C46.365 28.5828 46.453 27.9117 46.7426 27.2945C47.0336 26.67 47.5156 26.1258 48.1888 25.6616C48.832 25.2182 49.4927 24.9746 50.1709 24.9309C50.8533 24.8842 51.515 25.0417 52.156 25.4032C52.7983 25.7574 53.3838 26.3185 53.9125 27.0864ZM48.5483 30.7848C48.9382 31.351 49.3514 31.7905 49.788 32.1031C50.2246 32.4157 50.6777 32.5778 51.1472 32.5894C51.6168 32.6009 52.0981 32.4367 52.5913 32.0967C53.0801 31.7597 53.4027 31.3696 53.5592 30.9264C53.72 30.4803 53.7322 29.9975 53.5957 29.4779C53.4593 28.9583 53.1961 28.4154 52.8062 27.8491C52.4193 27.2872 52.0105 26.8541 51.5798 26.5501C51.1462 26.2417 50.696 26.0839 50.2294 26.0767C49.7628 26.0694 49.2808 26.2373 48.7834 26.5802C48.0502 27.0857 47.6789 27.6991 47.6696 28.4204C47.6646 29.1387 47.9575 29.9268 48.5483 30.7848Z" fill="#105720"/>
<path d="M62.7429 17.4463L66.625 25.0782L65.5807 25.6101L63.0517 20.6382C62.9478 20.4339 62.8474 20.225 62.7504 20.0114C62.6557 19.7907 62.5633 19.5689 62.4733 19.3459L62.4315 19.3672L63.0676 26.8901L62.086 27.39L56.4446 22.4165L56.4028 22.4377C56.5254 22.6442 56.6433 22.853 56.7565 23.0642C56.8721 23.2684 56.9889 23.4865 57.1069 23.7186L59.6147 28.6487L58.5635 29.1841L54.6814 21.5522L56.2339 20.7615L61.8719 25.7456L61.1975 18.2335L62.7429 17.4463Z" fill="#105720"/>
<path d="M72.381 13.7807L75.2666 21.8424L74.0384 22.2826L71.5293 15.2728L67.2343 16.8121L69.7434 23.8219L68.5152 24.2621L65.6296 16.2005L72.381 13.7807Z" fill="#105720"/>
<path d="M78.9133 11.8629C79.9071 11.6296 80.6971 11.6795 81.2835 12.0126C81.8698 12.3458 82.2777 13.0017 82.5071 13.9804L83.8356 19.647L82.9154 19.8631L82.3831 18.688L82.3222 18.7023C82.1603 19.0613 81.977 19.3745 81.7722 19.6419C81.5662 19.9043 81.3084 20.128 80.9987 20.313C80.6929 20.4918 80.2992 20.6378 79.8175 20.7508C79.3104 20.8699 78.8383 20.8871 78.4012 20.8024C77.9692 20.7166 77.5969 20.5205 77.2843 20.214C76.9768 19.9063 76.7582 19.4762 76.6287 18.9234C76.4337 18.0918 76.6135 17.3755 77.168 16.7746C77.7226 16.1736 78.6694 15.6945 80.0087 15.3373L81.4319 14.939L81.3124 14.4294C81.1436 13.7093 80.8707 13.2411 80.4936 13.0246C80.1165 12.8082 79.6466 12.7661 79.0838 12.8982C78.6477 13.0006 78.2468 13.1615 77.881 13.3812C77.5152 13.6008 77.1751 13.8385 76.8606 14.0942L76.248 13.2269C76.578 12.9461 76.9704 12.6801 77.425 12.4289C77.8797 12.1777 78.3758 11.9891 78.9133 11.8629ZM81.6253 15.8325L80.3677 16.1839C79.3377 16.4685 78.6449 16.8104 78.2891 17.2095C77.9333 17.6087 77.8196 18.0821 77.948 18.6298C78.0598 19.1064 78.2869 19.4249 78.6294 19.5853C78.9719 19.7456 79.3815 19.7698 79.8581 19.6579C80.5984 19.4841 81.1562 19.1365 81.5315 18.6151C81.9067 18.0936 81.998 17.4222 81.8054 16.6007L81.6253 15.8325Z" fill="#105720"/>
<path d="M86.6057 10.4627L87.0064 14.0341L91.75 13.5013L91.3493 9.92991L92.6381 9.78515L93.5926 18.2943L92.3039 18.439L91.8728 14.596L87.1292 15.1288L87.5603 18.9719L86.2637 19.1175L85.3092 10.6084L86.6057 10.4627Z" fill="#105720"/>
<path d="M98.4317 9.48625L98.3284 14.8681C98.3264 14.9722 98.3212 15.1076 98.3128 15.2741C98.3045 15.4354 98.2933 15.6097 98.2793 15.797C98.2654 15.979 98.2516 16.1559 98.2379 16.3275C98.2295 16.4941 98.219 16.6319 98.2065 16.7411L103.017 9.57525L104.61 9.60618L104.446 18.1671L103.235 18.1436L103.336 12.8946C103.339 12.7279 103.346 12.5145 103.356 12.2542C103.366 11.994 103.379 11.7389 103.394 11.4892C103.409 11.2342 103.421 11.0365 103.429 10.896L98.6345 18.0543L97.0332 18.0232L97.1975 9.4623L98.4317 9.48625Z" fill="#105720"/>
<path d="M110.537 10.0868L109.732 15.4092C109.716 15.5121 109.694 15.6457 109.663 15.8097C109.634 15.9685 109.6 16.1399 109.562 16.3237C109.524 16.5024 109.488 16.6759 109.452 16.8443C109.422 17.0083 109.393 17.1436 109.367 17.2502L115.071 10.7736L116.647 11.0123L115.367 19.4786L114.169 19.2973L114.954 14.1062C114.979 13.9415 115.013 13.7307 115.058 13.474C115.102 13.2173 115.148 12.9661 115.195 12.7205C115.244 12.4697 115.281 12.2752 115.307 12.1369L109.62 18.6081L108.036 18.3682L109.316 9.90195L110.537 10.0868Z" fill="#105720"/>
<path d="M122.939 16.7622L126.443 14.53L127.166 15.3197L124.19 17.2617L125.485 20.5727L124.435 20.8023L122.875 16.9631L122.939 16.7622ZM125.9 17.7114L129.441 15.4911L130.15 16.2761L127.181 18.2205L128.468 21.5291L127.433 21.7634L125.836 17.9123L125.9 17.7114Z" fill="#105720"/>
<path d="M135.926 14.9238C135.447 14.7079 134.978 14.5628 134.52 14.4883C134.067 14.4159 133.643 14.382 133.247 14.3866L133.206 13.1432C133.697 13.13 134.221 13.1855 134.776 13.3096C135.331 13.4338 135.879 13.6176 136.421 13.8613C137.252 14.2352 137.916 14.6883 138.414 15.2205C138.918 15.7501 139.268 16.3385 139.462 16.9857C139.657 17.6329 139.712 18.3173 139.627 19.039C139.543 19.7606 139.331 20.4991 138.992 21.2544C138.486 22.3804 137.862 23.2733 137.12 23.9333C136.378 24.5933 135.533 24.9812 134.584 25.097C133.641 25.215 132.611 25.0229 131.494 24.5207C130.891 24.2493 130.394 23.9829 130.004 23.7214C129.615 23.4669 129.254 23.1786 128.919 22.8566L129.393 21.8019C129.747 22.0928 130.115 22.375 130.494 22.6486C130.881 22.9195 131.311 23.1619 131.786 23.3755C132.423 23.6619 133.02 23.8251 133.579 23.8651C134.142 23.9073 134.665 23.8311 135.146 23.6365C135.628 23.4419 136.065 23.136 136.458 22.7188C136.856 22.3038 137.205 21.7812 137.505 21.151L132.354 18.8335L132.834 17.7646L137.971 20.0757C138.176 19.5053 138.283 18.9623 138.292 18.4467C138.303 17.9263 138.22 17.4435 138.043 16.9984C137.866 16.5533 137.599 16.1562 137.242 15.8071C136.892 15.4554 136.454 15.161 135.926 14.9238Z" fill="#105720"/>
<path d="M146.093 32.1701L144.717 31.3359L143.229 23.6556L140.227 28.6146L139.091 27.9262L145.006 18.1551L146.142 18.8435L143.277 23.5754L150.518 21.496L151.821 22.2856L144.626 24.4108L146.093 32.1701Z" fill="#105720"/>
<path d="M158.595 34.7119C158.041 35.3965 157.45 35.9499 156.821 36.3722C156.195 36.7904 155.546 37.0628 154.875 37.1894C154.211 37.3153 153.537 37.2828 152.854 37.0921C152.171 36.9013 151.496 36.5357 150.828 35.9951C150.14 35.4382 149.627 34.8423 149.289 34.2075C148.956 33.576 148.783 32.9201 148.77 32.2398C148.761 31.5627 148.899 30.8739 149.184 30.1732C149.473 29.4758 149.894 28.7848 150.448 28.1001C151.181 27.1927 151.974 26.5179 152.827 26.0757C153.68 25.6335 154.564 25.4677 155.479 25.5783C156.398 25.6921 157.317 26.1209 158.236 26.8646C159.115 27.5755 159.701 28.3617 159.996 29.2233C160.295 30.0882 160.322 30.9875 160.076 31.9211C159.838 32.8539 159.344 33.7842 158.595 34.7119ZM151.525 28.9919C150.916 29.7454 150.496 30.4844 150.266 31.209C150.035 31.9336 150.019 32.6243 150.219 33.2812C150.422 33.9413 150.865 34.5482 151.55 35.1019C152.238 35.6588 152.922 35.9643 153.601 36.0183C154.285 36.0756 154.955 35.914 155.61 35.5334C156.266 35.1528 156.898 34.5858 157.507 33.8323C158.434 32.6858 158.916 31.5956 158.955 30.5616C159.001 29.5269 158.516 28.5984 157.499 27.7761C156.811 27.2191 156.125 26.9084 155.44 26.8437C154.756 26.7791 154.084 26.9318 153.423 27.3017C152.77 27.671 152.137 28.2343 151.525 28.9919Z" fill="#105720"/>
<path d="M162.391 46.8896L161.491 45.9134L169.02 38.9585L166.509 36.2367C166.031 36.5789 165.531 36.9349 165.007 37.3048C164.484 37.6747 163.961 38.0409 163.438 38.4035C162.915 38.766 162.417 39.1056 161.944 39.4222C161.47 39.7388 161.043 40.0129 160.662 40.2447C160.038 40.6364 159.47 40.9308 158.957 41.1278C158.452 41.3251 157.987 41.3932 157.562 41.3319C157.144 41.271 156.752 41.0414 156.384 40.6433C156.261 40.5093 156.151 40.363 156.054 40.2042C155.961 40.0493 155.887 39.9045 155.834 39.7696L156.654 39.0115C156.697 39.1349 156.755 39.2626 156.827 39.3945C156.902 39.5303 156.997 39.6594 157.11 39.7819C157.332 40.0231 157.603 40.1242 157.921 40.0853C158.247 40.0468 158.596 39.9298 158.969 39.7346C159.345 39.5431 159.718 39.3332 160.088 39.1046C160.394 38.9141 160.776 38.6676 161.234 38.3651C161.692 38.0627 162.207 37.7146 162.779 37.3208C163.355 36.9235 163.967 36.4964 164.616 36.0393C165.268 35.586 165.935 35.115 166.618 34.6261L170.781 39.1396L162.391 46.8896Z" fill="#105720"/>
<path d="M174.908 54.3682C174.181 54.8652 173.456 55.2255 172.732 55.4494C172.013 55.6703 171.313 55.7449 170.633 55.6735C169.961 55.6033 169.325 55.3789 168.726 55.0001C168.126 54.6213 167.584 54.0771 167.1 53.3676C166.6 52.6365 166.28 51.9184 166.139 51.2135C166.001 50.5128 166.023 49.8348 166.206 49.1795C166.393 48.5285 166.723 47.9083 167.197 47.3189C167.674 46.7339 168.276 46.1928 169.002 45.6959C169.965 45.0372 170.918 44.6185 171.862 44.4397C172.806 44.261 173.701 44.356 174.545 44.7246C175.393 45.0976 176.15 45.7722 176.817 46.7484C177.455 47.6817 177.791 48.6033 177.826 49.5132C177.864 50.4275 177.632 51.2965 177.128 52.1203C176.632 52.9455 175.892 53.6948 174.908 54.3682ZM169.778 46.8594C168.978 47.4064 168.364 47.9938 167.935 48.6216C167.506 49.2495 167.293 49.9066 167.295 50.5929C167.3 51.2836 167.551 51.9923 168.048 52.7191C168.547 53.4502 169.114 53.9392 169.75 54.1861C170.388 54.4372 171.076 54.4747 171.813 54.2984C172.551 54.1221 173.319 53.7604 174.119 53.2135C175.335 52.3813 176.111 51.4755 176.445 50.4962C176.786 49.5182 176.588 48.4895 175.85 47.4101C175.351 46.679 174.782 46.1842 174.145 45.9258C173.508 45.6674 172.82 45.6206 172.081 45.7854C171.35 45.9515 170.582 46.3095 169.778 46.8594Z" fill="#105720"/>
<path d="M173.755 64.4532L181.316 56.7215L181.29 56.6648C181.105 56.7735 180.876 56.8995 180.604 57.0429C180.332 57.1863 180.032 57.3393 179.706 57.5021C179.384 57.6626 179.053 57.8217 178.713 57.9794L172.163 61.0145L171.645 59.8943L182.008 55.092L182.835 56.8787L175.735 64.1556L175.758 64.2053L185.919 63.5433L186.74 65.3158L176.376 70.1181L175.825 68.927L182.46 65.8525C182.767 65.7101 183.076 65.5725 183.388 65.4396C183.704 65.3046 184.003 65.1806 184.283 65.0678C184.569 64.9528 184.816 64.8553 185.026 64.7753L185 64.7186L174.211 65.4387L173.755 64.4532Z" fill="#105720"/>
<path d="M183.094 77.5811L179.255 75.9436L179.503 74.9187L182.804 76.2399L184.774 73.2945L185.549 74.0043L183.295 77.519L183.094 77.5811ZM182.172 74.5868L178.34 72.9717L178.587 71.9394L181.887 73.2605L183.858 70.3152L184.634 71.0324L182.374 74.5247L182.172 74.5868Z" fill="#105720"/>
</svg>
