<svg width="16" height="18" viewBox="0 0 16 18" fill="none" xmlns="http://www.w3.org/2000/svg">
<path d="M9.77778 0H6.22222C4.57199 0 2.98934 0.663786 1.82245 1.84533C0.655555 3.02688 5.50653e-07 4.6294 5.50653e-07 6.30036V9.00051C-0.000494912 10.1932 0.333372 11.3616 0.962785 12.3697C1.5922 13.3779 2.4913 14.1844 3.55556 14.6956V17.704C3.55662 17.7627 3.57457 17.8198 3.60722 17.8683C3.63987 17.9168 3.68579 17.9546 3.73936 17.9771C3.79292 17.9995 3.85179 18.0057 3.90875 17.9947C3.96571 17.9838 4.01827 17.9563 4.06 17.9155L6.64222 15.3009H9.77778C11.428 15.3009 13.0107 14.6371 14.1776 13.4555C15.3444 12.274 16 10.6715 16 9.00051V6.30036C16 4.6294 15.3444 3.02688 14.1776 1.84533C13.0107 0.663786 11.428 0 9.77778 0ZM12.1067 11.8087L11.2178 12.7087C10.2711 13.647 7.8 12.576 5.62222 10.3236C3.44445 8.0712 2.48889 5.54431 3.4 4.60601L4.28889 3.70596C4.4631 3.54761 4.68961 3.46116 4.9237 3.46365C5.1578 3.46615 5.38246 3.55743 5.55333 3.71946L6.85111 5.06954C6.95418 5.17723 7.02851 5.3097 7.0671 5.45449C7.1057 5.59928 7.10729 5.75163 7.07174 5.89721C7.03618 6.04279 6.96464 6.17683 6.86385 6.28672C6.76306 6.3966 6.63632 6.47873 6.49556 6.52537C6.28691 6.59019 6.11093 6.73389 6.00417 6.92663C5.8974 7.11938 5.86806 7.34635 5.92222 7.56043C6.14444 8.55948 7.39778 9.81055 8.33111 10.0558C8.54153 10.1066 8.76301 10.0779 8.95405 9.97519C9.14509 9.87247 9.29258 9.70273 9.36889 9.49778C9.41819 9.35485 9.50299 9.22716 9.61514 9.12702C9.72728 9.02688 9.863 8.95766 10.0092 8.92601C10.1554 8.89437 10.3072 8.90136 10.45 8.94633C10.5928 8.9913 10.7217 9.07272 10.8244 9.18277L12.12 10.5328C12.2756 10.7087 12.3605 10.9372 12.3581 11.1734C12.3556 11.4095 12.2659 11.6361 12.1067 11.8087ZM8.80889 4.27524C8.7205 4.27482 8.63217 4.28008 8.54445 4.29099C8.50578 4.29528 8.46666 4.29181 8.42931 4.28078C8.39197 4.26976 8.35714 4.25139 8.3268 4.22674C8.29647 4.20208 8.27123 4.17162 8.25252 4.13709C8.23382 4.10255 8.22201 4.06463 8.21778 4.02548C8.21355 3.98632 8.21697 3.94671 8.22786 3.9089C8.23875 3.87109 8.25689 3.83582 8.28124 3.8051C8.30558 3.77439 8.33567 3.74883 8.36977 3.72989C8.40388 3.71095 8.44133 3.69899 8.48 3.69471C8.58917 3.68198 8.699 3.67597 8.80889 3.67671C9.59531 3.67611 10.3498 3.99171 10.9065 4.55415C11.4632 5.11658 11.7766 5.87983 11.7778 6.67613C11.7785 6.78739 11.7726 6.8986 11.76 7.00915C11.7558 7.0483 11.744 7.08622 11.7253 7.12076C11.7065 7.15529 11.6813 7.18575 11.651 7.21041C11.6206 7.23506 11.5858 7.25343 11.5485 7.26445C11.5111 7.27548 11.472 7.27894 11.4333 7.27466C11.3947 7.27038 11.3572 7.25842 11.3231 7.23948C11.289 7.22054 11.2589 7.19498 11.2346 7.16427C11.2102 7.13355 11.1921 7.09828 11.1812 7.06047C11.1703 7.02266 11.1669 6.98304 11.1711 6.94389C11.1808 6.85496 11.186 6.76559 11.1867 6.67613C11.1855 6.03857 10.9344 5.42756 10.4885 4.97737C10.0427 4.52719 9.43854 4.27464 8.80889 4.27524ZM10.5867 6.67613C10.5802 6.75131 10.5462 6.82131 10.4913 6.87232C10.4363 6.92332 10.3645 6.95162 10.29 6.95162C10.2155 6.95162 10.1437 6.92332 10.0887 6.87232C10.0338 6.82131 9.99977 6.75131 9.99333 6.67613C9.99333 6.35805 9.86855 6.053 9.64642 5.82808C9.42429 5.60316 9.12302 5.47681 8.80889 5.47681C8.76777 5.48042 8.72637 5.47533 8.68729 5.46187C8.64822 5.44841 8.61234 5.42688 8.58192 5.39863C8.5515 5.37039 8.52722 5.33605 8.5106 5.29779C8.49399 5.25954 8.48541 5.21821 8.48541 5.17642C8.48541 5.13463 8.49399 5.09329 8.5106 5.05504C8.52722 5.01679 8.5515 4.98245 8.58192 4.9542C8.61234 4.92596 8.64822 4.90442 8.68729 4.89096C8.72637 4.87751 8.76777 4.87242 8.80889 4.87602C9.28039 4.87602 9.73257 5.06568 10.066 5.40326C10.3994 5.74085 10.5867 6.19871 10.5867 6.67613ZM12.8467 7.65043C12.8401 7.69134 12.8253 7.73043 12.8031 7.76527C12.7809 7.80012 12.7519 7.82996 12.7179 7.85294C12.6838 7.87592 12.6454 7.89154 12.6051 7.89883C12.5648 7.90612 12.5235 7.90492 12.4837 7.8953C12.4439 7.88569 12.4064 7.86787 12.3737 7.84296C12.341 7.81804 12.3137 7.78656 12.2936 7.75049C12.2734 7.71442 12.2608 7.67453 12.2566 7.63331C12.2523 7.59209 12.2565 7.55043 12.2689 7.51092C12.3331 7.23896 12.3651 6.96025 12.3644 6.68063C12.3644 5.72579 11.9898 4.81007 11.323 4.1349C10.6562 3.45973 9.75188 3.08042 8.80889 3.08042C8.71778 3.08042 8.62444 3.08042 8.53333 3.08042C8.49452 3.08338 8.45551 3.07856 8.41854 3.06625C8.38156 3.05394 8.34734 3.03438 8.31784 3.00868C8.25824 2.95678 8.22145 2.88303 8.21556 2.80366C8.20966 2.72429 8.23515 2.6458 8.28641 2.58545C8.33767 2.52511 8.4105 2.48786 8.48889 2.48189C8.59556 2.47289 8.70222 2.46839 8.80889 2.46839C9.90986 2.47018 10.9651 2.91428 11.743 3.70319C12.5209 4.4921 12.9578 5.56133 12.9578 6.67613C12.9579 7.00414 12.9206 7.33107 12.8467 7.65043Z" fill="#105720"/>
</svg>
