<svg width="16" height="16" viewBox="0 0 16 16" fill="none" xmlns="http://www.w3.org/2000/svg">
<path d="M7.99597 1.58199e-06C6.52232 0.000561853 5.07746 0.408252 3.82083 1.17809C2.56419 1.94793 1.54461 3.04999 0.874597 4.36267C0.204579 5.67536 -0.0898357 7.14765 0.0238356 8.61709C0.137507 10.0865 0.654846 11.496 1.51877 12.69L0.518897 15.662L3.59651 14.678C4.63767 15.3649 5.825 15.7987 7.06367 15.9449C8.30234 16.0911 9.55803 15.9455 10.7304 15.5199C11.9028 15.0942 12.9595 14.4003 13.816 13.4934C14.6724 12.5866 15.305 11.492 15.6631 10.2972C16.0213 9.10227 16.0951 7.84017 15.8786 6.61168C15.6622 5.38319 15.1615 4.22234 14.4165 3.22186C13.6716 2.22137 12.703 1.40898 11.5882 0.849566C10.4734 0.290151 9.24323 -0.000782832 7.99597 1.58199e-06ZM12.2474 11.314L11.3955 12.166C10.4997 13.062 8.12395 12.076 6.01821 9.966C3.91247 7.856 2.96859 5.486 3.82049 4.6L4.67238 3.748C4.83734 3.59635 5.05324 3.51219 5.2773 3.51219C5.50137 3.51219 5.71727 3.59635 5.88223 3.748L7.13807 5C7.24048 5.09957 7.3156 5.22377 7.35624 5.3607C7.39688 5.49763 7.40167 5.64271 7.37016 5.78203C7.33865 5.92135 7.27188 6.05024 7.17627 6.15634C7.08066 6.26245 6.9594 6.34222 6.82411 6.388C6.62453 6.45178 6.45723 6.59008 6.35703 6.77411C6.25683 6.95814 6.23145 7.17373 6.28618 7.376C6.51015 8.316 7.72 9.482 8.61789 9.706C8.81906 9.74822 9.02871 9.71645 9.20834 9.61652C9.38797 9.51659 9.52553 9.35521 9.59577 9.162C9.64103 9.02473 9.72111 8.90155 9.82818 8.80447C9.93525 8.70739 10.0657 8.63973 10.2067 8.6081C10.3477 8.57647 10.4945 8.58194 10.6328 8.62399C10.771 8.66604 10.896 8.74322 10.9956 8.848L12.2494 10.104C12.4008 10.2692 12.4846 10.4853 12.4842 10.7094C12.4838 10.9335 12.3993 11.1493 12.2474 11.314Z" fill="#105720"/>
</svg>
